<svg width="46" height="38" viewBox="0 0 46 38" fill="none" xmlns="http://www.w3.org/2000/svg">
<path d="M43.4444 27.6364H42.5926V23.3182C42.5818 19.109 41.2574 15.0114 38.8091 11.612C36.3608 8.21257 32.9142 5.68588 28.963 4.39375V2.59091C28.963 1.90376 28.6937 1.24475 28.2145 0.75886C27.7352 0.27297 27.0852 0 26.4074 0H19.5926C18.9148 0 18.2648 0.27297 17.7855 0.75886C17.3063 1.24475 17.037 1.90376 17.037 2.59091V4.39375C13.0858 5.68588 9.63921 8.21257 7.19092 11.612C4.74264 15.0114 3.41824 19.109 3.40741 23.3182V27.6364H2.55556C1.87778 27.6364 1.22776 27.9093 0.748505 28.3952C0.269245 28.8811 0 29.5401 0 30.2273V35.4091C0 36.0962 0.269245 36.7552 0.748505 37.2411C1.22776 37.727 1.87778 38 2.55556 38H43.4444C44.1222 38 44.7722 37.727 45.2515 37.2411C45.7308 36.7552 46 36.0962 46 35.4091V30.2273C46 29.5401 45.7308 28.8811 45.2515 28.3952C44.7722 27.9093 44.1222 27.6364 43.4444 27.6364ZM40.8889 23.3182V27.6364H28.963V6.21818C32.4452 7.47735 35.4592 9.79538 37.5936 12.8558C39.7281 15.9163 40.8788 19.57 40.8889 23.3182ZM19.5926 1.72727H26.4074C26.6333 1.72727 26.85 1.81826 27.0098 1.98023C27.1695 2.14219 27.2593 2.36186 27.2593 2.59091V27.6364H18.7407V2.59091C18.7407 2.36186 18.8305 2.14219 18.9902 1.98023C19.15 1.81826 19.3667 1.72727 19.5926 1.72727ZM5.11111 23.3182C5.12115 19.57 6.27194 15.9163 8.40636 12.8558C10.5408 9.79538 13.5548 7.47735 17.037 6.21818V27.6364H5.11111V23.3182ZM44.2963 35.4091C44.2963 35.6381 44.2066 35.8578 44.0468 36.0198C43.887 36.1817 43.6704 36.2727 43.4444 36.2727H2.55556C2.32963 36.2727 2.11296 36.1817 1.95321 36.0198C1.79345 35.8578 1.7037 35.6381 1.7037 35.4091V30.2273C1.7037 29.9982 1.79345 29.7786 1.95321 29.6166C2.11296 29.4546 2.32963 29.3636 2.55556 29.3636H43.4444C43.6704 29.3636 43.887 29.4546 44.0468 29.6166C44.2066 29.7786 44.2963 29.9982 44.2963 30.2273V35.4091Z" fill="#FB8C03"/>
</svg>
