<svg width="51" height="37" viewBox="0 0 51 37" fill="none" xmlns="http://www.w3.org/2000/svg">
<path d="M36.931 10.8159V8.80952C36.931 3.86958 28.8194 0 18.4655 0C8.11164 0 0 3.86958 0 8.80952V17.619C0 21.8344 5.90457 25.2657 14.069 26.1841V28.1905C14.069 33.1304 22.1806 37 32.5345 37C42.8884 37 51 33.1304 51 28.1905V19.381C51 15.2229 45.2559 11.7541 36.931 10.8159ZM49.2414 19.381C49.2414 22.7836 42.5278 26.4286 32.5345 26.4286C30.4719 26.4317 28.4128 26.2593 26.3793 25.9132V25.6071C32.6686 24.2174 36.931 21.2023 36.931 17.619V12.591C44.0139 13.4345 49.2414 16.2822 49.2414 19.381ZM21.1452 24.5764C20.282 24.6366 19.3888 24.6667 18.4655 24.6667C17.2631 24.6667 16.109 24.6116 15.0076 24.5147H14.9483C14.0338 24.431 13.1545 24.3165 12.3103 24.1711V17.1345C14.3458 17.4611 16.4041 17.6231 18.4655 17.619C20.5269 17.6231 22.5853 17.4611 24.6207 17.1345V24.1645C23.491 24.3577 22.3523 24.4937 21.209 24.572L21.1452 24.5764ZM35.1724 12.624V17.619C35.1724 20.0152 31.8398 22.5304 26.3793 23.8099V16.7976C30.2549 15.9408 33.3588 14.4674 35.1724 12.624ZM18.4655 1.7619C28.4589 1.7619 35.1724 5.40685 35.1724 8.80952C35.1724 12.2122 28.4589 15.8571 18.4655 15.8571C8.47216 15.8571 1.75862 12.2122 1.75862 8.80952C1.75862 5.40685 8.47216 1.7619 18.4655 1.7619ZM1.75862 17.619V12.624C3.5722 14.4674 6.67616 15.9408 10.5517 16.8086V23.821C5.09121 22.5304 1.75862 20.0152 1.75862 17.619ZM15.8276 28.1905V26.3405C16.6871 26.3977 17.5686 26.4286 18.4655 26.4286C19.3624 26.4286 20.2373 26.3977 21.1034 26.3427C22.2517 26.7612 23.4268 27.1019 24.6207 27.3624V34.3814C19.1602 33.1018 15.8276 30.5867 15.8276 28.1905ZM26.3793 34.736V27.6993C28.4145 28.0285 30.4729 28.1928 32.5345 28.1905C34.5959 28.1946 36.6542 28.0325 38.6897 27.706V34.736C34.6134 35.4055 30.4555 35.4055 26.3793 34.736ZM49.2414 28.1905C49.2414 30.5867 45.9088 33.1018 40.4483 34.3814V27.369C44.3238 26.5123 47.4278 25.0389 49.2414 23.1845V28.1905Z" fill="#FB8C03"/>
</svg>
