<svg width="44" height="44" viewBox="0 0 44 44" fill="none" xmlns="http://www.w3.org/2000/svg">
<path d="M22 0C17.6488 0 13.3953 1.29028 9.77746 3.70767C6.15958 6.12506 3.33979 9.56099 1.67466 13.581C0.00953191 17.6009 -0.426141 22.0244 0.422734 26.292C1.27161 30.5596 3.3669 34.4796 6.44366 37.5563C9.52041 40.6331 13.4404 42.7284 17.708 43.5773C21.9756 44.4261 26.3991 43.9905 30.419 42.3253C34.439 40.6602 37.8749 37.8404 40.2923 34.2225C42.7097 30.6047 44 26.3512 44 22C43.9936 16.1672 41.6737 10.5751 37.5493 6.45072C33.4249 2.32631 27.8328 0.00640551 22 0ZM22 1.76C26.0856 1.7557 30.0757 2.99494 33.44 5.313V10.12C33.4381 10.3316 33.36 10.5355 33.22 10.6942L28.3426 16.3614C28.2023 16.5239 28.0075 16.6295 27.7948 16.6584L20.878 17.6C20.6542 17.6318 20.4269 17.575 20.2444 17.4416L20.2092 17.4174L15.8686 14.5684C15.5809 14.3638 15.255 14.219 14.9103 14.1425C14.5655 14.0661 14.209 14.0595 13.8617 14.1233C13.5144 14.1871 13.1835 14.3199 12.8884 14.5139C12.5934 14.7079 12.3403 14.9591 12.144 15.2526L7.52401 22.1386C7.2376 22.5687 7.08453 23.0738 7.08401 23.5906L7.04001 31.5612C7.03962 31.7065 7.00325 31.8495 6.93415 31.9773C6.86505 32.1051 6.76537 32.2139 6.64401 32.2938L5.18101 33.253C3.14296 30.2061 1.97065 26.6629 1.78923 23.0017C1.60782 19.3405 2.42411 15.6987 4.15096 12.4653C5.87781 9.23179 8.45038 6.528 11.594 4.64255C14.7376 2.75711 18.3343 1.7608 22 1.76ZM6.23041 34.672L7.61421 33.7634C7.97901 33.5237 8.27869 33.1972 8.48639 32.8133C8.6941 32.4294 8.80337 31.9999 8.80441 31.5634L8.85061 23.5928C8.8513 23.4205 8.90256 23.2522 8.99801 23.1088L13.607 16.2228C13.6731 16.1248 13.7582 16.041 13.8573 15.9766C13.9565 15.9122 14.0676 15.8684 14.184 15.8479C14.3004 15.8273 14.4198 15.8305 14.535 15.8571C14.6502 15.8837 14.7588 15.9333 14.8544 16.0028L14.8874 16.027L19.2302 18.8672C19.7763 19.2553 20.4495 19.4212 21.1134 19.3314L28.0368 18.3942C28.6768 18.308 29.2631 17.9903 29.6846 17.501L34.562 11.8382C34.973 11.36 35.1994 10.7505 35.2 10.12V6.6682C38.3942 9.41281 40.6518 13.0863 41.6575 17.1758C42.6632 21.2654 42.367 25.5669 40.81 29.48L36.2846 25.3396C35.9136 25.0008 35.4537 24.7748 34.9588 24.6883C34.4638 24.6018 33.9545 24.6583 33.4906 24.8512L26.7916 27.6364C26.3712 27.8123 26.0031 28.0936 25.723 28.4532C25.4428 28.8127 25.26 29.2383 25.1922 29.689L24.6686 33.2508C24.5764 33.8938 24.7245 34.5481 25.0845 35.0888C25.4445 35.6294 25.9912 36.0183 26.62 36.1812L31.339 37.4198C31.4895 37.4566 31.6276 37.5325 31.7394 37.6398L33.0462 38.9598C28.8424 41.7037 23.7678 42.7847 18.8107 41.992C13.8536 41.1994 9.36898 38.59 6.23041 34.672ZM34.485 37.9192L32.9758 36.4056C32.6444 36.0736 32.2305 35.8359 31.7768 35.717L27.06 34.4784C26.8482 34.4261 26.6634 34.2969 26.5415 34.116C26.4195 33.9351 26.3691 33.7154 26.4 33.4994L26.9258 29.9354C26.9479 29.7851 27.0086 29.6431 27.1019 29.5232C27.1952 29.4033 27.318 29.3096 27.4582 29.2512L34.1572 26.4682C34.312 26.4036 34.4821 26.3846 34.6474 26.4134C34.8126 26.4423 34.9662 26.5178 35.09 26.631L40.04 31.1564C38.7011 33.7871 36.8056 36.0948 34.485 37.9192Z" fill="#FB8C03"/>
</svg>
