<svg width="51" height="44" viewBox="0 0 51 44" fill="none" xmlns="http://www.w3.org/2000/svg">
<path d="M50.6884 14.8344L38.5839 0.460457C38.4621 0.315737 38.3119 0.199777 38.1434 0.120364C37.9748 0.0409517 37.7919 -7.40547e-05 37.6069 4.25802e-05H13.3979C13.2137 -0.00147897 13.0313 0.0377937 12.8628 0.115246C12.6944 0.192698 12.5437 0.306552 12.4209 0.449228L0.31643 14.8232C0.107585 15.0738 -0.00501273 15.3956 0.000171361 15.7271C0.00535545 16.0586 0.127957 16.3764 0.34453 16.6199L24.5535 43.571C24.6749 43.7064 24.8217 43.8143 24.985 43.8881C25.1482 43.9619 25.3244 44 25.5024 44C25.6804 44 25.8566 43.9619 26.0198 43.8881C26.1831 43.8143 26.3299 43.7064 26.4513 43.571L50.6603 16.6199C50.8739 16.3771 50.9947 16.0616 50.9998 15.7327C51.005 15.4038 50.8942 15.0843 50.6884 14.8344ZM14.2496 17.0691L21.7284 36.4941L4.27849 17.0691H14.2496ZM33.9626 17.0691L25.5024 39.0432L17.0422 17.0691H33.9626ZM17.7209 14.374L25.5024 3.59353L33.2839 14.374H17.7209ZM36.7553 17.0691H46.7263L29.2764 36.4941L36.7553 17.0691ZM46.8539 14.374H36.5261L28.0962 2.69516H37.019L46.8539 14.374ZM13.9859 2.69516H22.9086L14.4787 14.374H4.15096L13.9859 2.69516Z" fill="#FB8C03"/>
</svg>
