<svg width="17" height="16" viewBox="0 0 17 16" fill="none" xmlns="http://www.w3.org/2000/svg">
<path d="M15.481 10.8587L11.8289 9.22206C11.6635 9.15116 11.4829 9.12265 11.3036 9.13912C11.1244 9.15559 10.952 9.21652 10.8023 9.31638C10.7871 9.32614 10.7726 9.33699 10.759 9.34885L8.85019 10.9724C8.83039 10.9832 8.80834 10.9892 8.7858 10.99C8.76325 10.9908 8.74083 10.9864 8.72031 10.977C7.49341 10.3848 6.22244 9.12156 5.62792 7.91166C5.61802 7.89144 5.61288 7.86923 5.61288 7.84672C5.61288 7.82421 5.61802 7.802 5.62792 7.78178L7.25684 5.84904C7.26853 5.83473 7.27937 5.81976 7.28931 5.8042C7.38779 5.65383 7.44728 5.48131 7.46239 5.3022C7.47751 5.12309 7.44778 4.94304 7.37589 4.77829L5.75085 1.13236C5.65856 0.91714 5.49896 0.737652 5.296 0.620839C5.09304 0.504026 4.85767 0.456189 4.62522 0.484507C3.61496 0.617322 2.68762 1.11345 2.0165 1.88018C1.34538 2.64691 0.976407 3.63178 0.978525 4.65073C0.978525 10.7041 5.90315 15.6287 11.9565 15.6287C12.9754 15.6307 13.9602 15.2616 14.7269 14.5906C15.4936 13.9195 15.9897 12.9922 16.1227 11.982C16.151 11.7507 16.1038 11.5163 15.9882 11.3139C15.8725 11.1116 15.6947 10.9519 15.481 10.8587ZM11.9565 14.701C6.41494 14.701 1.90624 10.1923 1.90624 4.65073C1.90366 3.85748 2.18997 3.09042 2.71169 2.49287C3.2334 1.89532 3.95483 1.50816 4.74118 1.40372H4.75896C4.79012 1.4043 4.82037 1.41428 4.84575 1.43236C4.87114 1.45043 4.89047 1.47575 4.90121 1.505L6.53245 5.14706C6.54175 5.16731 6.54657 5.18933 6.54657 5.21162C6.54657 5.2339 6.54175 5.25592 6.53245 5.27617L4.90044 7.21355C4.88827 7.22738 4.87715 7.24212 4.8672 7.25762C4.76508 7.41352 4.70494 7.59315 4.69262 7.77911C4.68029 7.96508 4.71619 8.15107 4.79685 8.31908C5.48258 9.72303 6.89735 11.127 8.31675 11.8127C8.48575 11.8929 8.67265 11.928 8.85922 11.9144C9.0458 11.9009 9.22567 11.8392 9.38131 11.7354C9.396 11.7254 9.41068 11.7145 9.4246 11.7029L11.3326 10.0794C11.3514 10.0693 11.3723 10.0634 11.3936 10.062C11.415 10.0607 11.4363 10.064 11.4563 10.0717L15.1092 11.7083C15.139 11.7211 15.1641 11.7428 15.1809 11.7706C15.1977 11.7983 15.2053 11.8306 15.2027 11.863C15.0988 12.6497 14.712 13.3716 14.1146 13.894C13.5172 14.4163 12.75 14.7031 11.9565 14.701Z" fill="black"/>
</svg>
