<svg width="24" height="24" viewBox="0 0 24 24" fill="none" xmlns="http://www.w3.org/2000/svg">
<path d="M15.364 2.63771C13.519 0.792715 10.962 -0.166285 8.349 0.0237148C3.823 0.343715 0 4.58971 0 9.29671V14.3347C0 16.3557 1.642 18.0007 3.661 18.0007H8.138C13.325 18.0007 17.647 14.3337 17.977 9.65171C18.162 7.03871 17.209 4.48171 15.364 2.63671V2.63771ZM4.5 10.5007C3.672 10.5007 3 9.82871 3 9.00071C3 8.17271 3.672 7.50071 4.5 7.50071C5.328 7.50071 6 8.17271 6 9.00071C6 9.82871 5.328 10.5007 4.5 10.5007ZM9 10.5007C8.172 10.5007 7.5 9.82871 7.5 9.00071C7.5 8.17271 8.172 7.50071 9 7.50071C9.828 7.50071 10.5 8.17271 10.5 9.00071C10.5 9.82871 9.828 10.5007 9 10.5007ZM13.5 10.5007C12.672 10.5007 12 9.82871 12 9.00071C12 8.17271 12.672 7.50071 13.5 7.50071C14.328 7.50071 15 8.17271 15 9.00071C15 9.82871 14.328 10.5007 13.5 10.5007ZM24 16.0007V21.0007C24 22.6577 22.657 24.0007 21 24.0007H16C13.045 24.0007 10.465 22.3857 9.08 19.9967C9.071 19.9837 9.064 19.9727 9.056 19.9597C14.872 19.5437 19.588 15.2327 19.972 9.79271C19.989 9.55371 19.983 9.31571 19.984 9.07771C19.988 9.07871 19.992 9.07971 19.996 9.08071C22.385 10.4657 24 13.0457 24 16.0007Z" fill="white"/>
</svg>
