<svg width="12" height="16" viewBox="0 0 12 16" fill="none" xmlns="http://www.w3.org/2000/svg">
<path d="M6 3.49053C5.47565 3.49053 4.96307 3.65259 4.52709 3.95623C4.09111 4.25987 3.75131 4.69145 3.55065 5.19638C3.34998 5.70131 3.29748 6.25693 3.39978 6.79296C3.50207 7.329 3.75457 7.82137 4.12535 8.20783C4.49612 8.59429 4.96851 8.85748 5.48278 8.9641C5.99706 9.07072 6.53012 9.016 7.01456 8.80685C7.49899 8.5977 7.91305 8.24352 8.20436 7.78909C8.49568 7.33466 8.65116 6.8004 8.65116 6.25386C8.65116 5.52098 8.37185 4.81812 7.87466 4.29989C7.37747 3.78166 6.70313 3.49053 6 3.49053ZM6 8.14456C5.64123 8.14456 5.29052 8.03368 4.99222 7.82592C4.69392 7.61817 4.46142 7.32288 4.32413 6.9774C4.18683 6.63192 4.15091 6.25176 4.2209 5.885C4.29089 5.51824 4.46366 5.18135 4.71734 4.91693C4.97103 4.65251 5.29424 4.47244 5.64612 4.39949C5.99799 4.32654 6.36271 4.36398 6.69417 4.50708C7.02563 4.65018 7.30893 4.89252 7.50825 5.20344C7.70757 5.51437 7.81395 5.87992 7.81395 6.25386C7.81395 6.75531 7.62284 7.23621 7.28266 7.59079C6.94248 7.94537 6.48109 8.14456 6 8.14456ZM6 0C4.40927 0.00192459 2.88422 0.66143 1.7594 1.83384C0.63458 3.00625 0.00184647 4.59583 0 6.25386C0 8.50162 1.00047 10.889 2.89326 13.1578C3.74757 14.1869 4.70906 15.1137 5.76 15.9212C5.83035 15.9725 5.91414 16 6 16C6.08586 16 6.16965 15.9725 6.24 15.9212C7.29094 15.1137 8.25243 14.1869 9.10674 13.1578C10.9995 10.889 12 8.5038 12 6.25386C11.9982 4.59583 11.3654 3.00625 10.2406 1.83384C9.11578 0.66143 7.59073 0.00192459 6 0ZM6 15.0173C4.95349 14.1752 0.837209 10.5894 0.837209 6.25386C0.837209 4.82667 1.38114 3.45793 2.34936 2.44876C3.31757 1.43958 4.63074 0.872632 6 0.872632C7.36926 0.872632 8.68243 1.43958 9.65064 2.44876C10.6189 3.45793 11.1628 4.82667 11.1628 6.25386C11.1628 10.5894 7.04651 14.1752 6 15.0173Z" fill="#FB8C03"/>
</svg>
