<svg width="52" height="42" viewBox="0 0 52 42" fill="none" xmlns="http://www.w3.org/2000/svg">
<path d="M5.16667 41.3333C3.74583 41.3333 2.52994 40.8279 1.519 39.8169C0.508056 38.806 0.00172222 37.5892 0 36.1667V5.16667C0 3.74583 0.506333 2.52994 1.519 1.519C2.53167 0.508055 3.74756 0.00172222 5.16667 0H46.5C47.9208 0 49.1376 0.506333 50.1502 1.519C51.1629 2.53167 51.6684 3.74756 51.6667 5.16667V36.1667C51.6667 37.5875 51.1612 38.8043 50.1502 39.8169C49.1393 40.8296 47.9226 41.3351 46.5 41.3333H5.16667ZM25.8333 23.25L5.16667 10.3333V36.1667H46.5V10.3333L25.8333 23.25ZM25.8333 18.0833L46.5 5.16667H5.16667L25.8333 18.0833ZM5.16667 10.3333V5.16667V36.1667V10.3333Z" fill="#FB8C03"/>
</svg>
