<svg width="46" height="46" viewBox="0 0 46 46" fill="none" xmlns="http://www.w3.org/2000/svg">
<path d="M39.5334 45.6044H38.9393C32.2446 44.8789 25.8127 42.5963 20.1584 38.9394C14.9054 35.5917 10.4448 31.1399 7.08675 25.8935C3.42224 20.224 1.13938 13.7735 0.421753 7.06104C0.339481 6.26046 0.420709 5.45151 0.660507 4.68327C0.900305 3.91502 1.29368 3.2035 1.81675 2.59187C2.32551 1.97206 2.95347 1.46063 3.66345 1.08789C4.37343 0.715152 5.151 0.488675 5.95009 0.421875H12.6668C14.1215 0.423343 15.5277 0.944916 16.6315 1.89241C17.7354 2.8399 18.464 4.15086 18.6859 5.58854C18.9314 7.43526 19.3909 9.24716 20.0551 10.9877C20.4592 12.0814 20.5426 13.2678 20.2955 14.4074C20.0484 15.5469 19.481 16.5921 18.6601 17.4202L17.0843 18.996C19.5653 22.9129 22.8934 26.2233 26.8234 28.6835L28.3993 27.1335C29.2273 26.3126 30.2726 25.7452 31.4121 25.4981C32.5516 25.251 33.738 25.3344 34.8318 25.7385C36.5743 26.3962 38.3855 26.8555 40.2309 27.1077C41.6932 27.3275 43.0249 28.0734 43.9762 29.2055C44.9275 30.3375 45.4329 31.7778 45.3976 33.256V39.456C45.3976 41.0685 44.7588 42.6153 43.6211 43.7579C42.4833 44.9005 40.9392 45.5459 39.3268 45.5527L39.5334 45.6044ZM12.6668 4.27104H6.49259C6.18943 4.29109 5.89348 4.37239 5.62263 4.51003C5.35178 4.64768 5.11165 4.83881 4.91675 5.07187C4.72706 5.2902 4.5835 5.54465 4.49471 5.8199C4.40592 6.09515 4.37373 6.38552 4.40009 6.67354C5.02933 12.7613 7.07286 18.6176 10.3676 23.7752C13.4072 28.5458 17.4545 32.5931 22.2251 35.6327C27.3846 38.9648 33.2481 41.0519 39.3526 41.7294C39.6699 41.7457 39.9872 41.6968 40.2849 41.5857C40.5826 41.4747 40.8544 41.3037 41.0834 41.0835C41.4947 40.6618 41.7263 40.0968 41.7292 39.5077V33.3335C41.7409 32.7899 41.5527 32.2608 41.2004 31.8466C40.8481 31.4324 40.3561 31.1618 39.8176 31.086C37.6833 30.7995 35.5869 30.2797 33.5659 29.536C33.1678 29.3872 32.7356 29.3543 32.3194 29.4411C31.9033 29.528 31.5204 29.7311 31.2151 30.0269L28.6318 32.6102C28.3292 32.9052 27.9395 33.0947 27.5206 33.1506C27.1018 33.2064 26.676 33.1256 26.3068 32.9202C20.7944 29.8053 16.2317 25.2515 13.1059 19.7452C12.892 19.3783 12.8063 18.9506 12.8624 18.5296C12.9186 18.1086 13.1133 17.7182 13.4159 17.4202L15.9993 14.8369C16.2955 14.5373 16.4993 14.1588 16.5863 13.7465C16.6734 13.3342 16.64 12.9057 16.4901 12.5119C15.7444 10.4915 15.2246 8.39489 14.9401 6.26021C14.876 5.70548 14.6077 5.19448 14.1874 4.82676C13.7672 4.45904 13.2251 4.26093 12.6668 4.27104Z" fill="#FB8C03"/>
</svg>
