<svg width="54" height="58" viewBox="0 0 54 58" fill="none" xmlns="http://www.w3.org/2000/svg">
<path d="M18.2493 0.757812L33.9405 9.91315L51.8327 2.45765V24.416H46.666V10.2076L36.3327 14.5141V24.416H31.166V14.2738L20.8327 8.2469V39.7248L25.6583 42.5406L23.0543 47.0021L18.0582 44.0855L0.166016 51.541V11.3081L18.2493 0.757812ZM15.666 39.4846V8.2469L5.33268 14.2738V43.791L15.666 39.4846ZM41.4994 32.166C39.6152 32.166 37.8082 32.9145 36.4759 34.2467C35.1437 35.579 34.3952 37.386 34.3952 39.2701C34.3952 42.5045 36.2939 45.6096 38.5673 48.1103C39.6187 49.2677 40.6779 50.2131 41.4994 50.8874C42.3209 50.2157 43.38 49.2677 44.4314 48.1103C46.7048 45.6096 48.6035 42.5045 48.6035 39.2701C48.6035 37.386 47.855 35.579 46.5228 34.2467C45.1905 32.9145 43.3835 32.166 41.4994 32.166ZM41.4994 57.2269L40.0656 56.2736L40.0604 56.2711L40.0501 56.2633L40.0191 56.2426L39.9158 56.1703L39.5619 55.9197C37.82 54.6343 36.2065 53.1835 34.7439 51.5875C32.1735 48.7613 29.2285 44.4394 29.2285 39.2701C29.2285 37.6587 29.5459 36.0631 30.1626 34.5743C30.7792 33.0855 31.6831 31.7328 32.8226 30.5934C33.962 29.4539 35.3147 28.55 36.8035 27.9334C38.2923 27.3167 39.8879 26.9993 41.4994 26.9993C43.1108 26.9993 44.7064 27.3167 46.1952 27.9334C47.684 28.55 49.0367 29.4539 50.1761 30.5934C51.3156 31.7328 52.2195 33.0855 52.8361 34.5743C53.4528 36.0631 53.7702 37.6587 53.7702 39.2701C53.7702 44.4394 50.8252 48.7613 48.2548 51.5875C46.693 53.2889 44.9599 54.8246 43.0829 56.1703L42.9796 56.2426L42.9486 56.2633L42.9383 56.2711H42.9331L41.4994 57.2269ZM38.2702 37.3326H44.7285V42.4993H38.2702V37.3326Z" fill="#FB8C03"/>
</svg>
